<svg version="1.0" xmlns="http://www.w3.org/2000/svg"
 width="200.000000pt" height="200.000000pt" viewBox="0 0 200.000000 200.000000"
 preserveAspectRatio="xMidYMid meet">
<g transform="translate(0.000000,200.000000) scale(0.100000,-0.100000)" stroke="none">
<path d="M1405 1883 c-192 -15 -273 -27 -305 -43 -47 -25 -1076 -1057 -1089
-1093 -16 -41 -13 -133 3 -165 19 -36 413 -427 449 -445 23 -12 142 -13 755
-9 462 3 732 8 740 14 16 14 15 33 -4 52 -14 14 -73 16 -507 16 l-492 0 512
513 c282 281 517 525 522 540 16 41 13 133 -3 165 -8 15 -106 118 -218 229
-200 199 -247 235 -300 231 -13 -1 -41 -3 -63 -5z m-285 -348 c-246 -246 -267
-265 -300 -265 -34 0 -29 6 230 265 246 246 267 265 300 265 34 0 29 -6 -230
-265z m-392 -265 c23 0 -11 -38 -220 -247 -136 -137 -252 -261 -257 -276 -16
-41 -13 -112 4 -155 10 -22 82 -103 188 -209 l171 -173 -59 0 -59 0 -203 203
c-205 205 -222 229 -208 285 4 17 104 125 283 305 257 258 279 278 306 273 16
-3 40 -6 54 -6z m402 -766 c-267 -268 -298 -294 -348 -294 -33 0 -52 16 -244
207 -132 132 -209 216 -213 233 -3 15 -1 40 5 56 6 16 127 145 268 287 l257
257 255 -255 255 -255 -235 -236z"/>
</g>
</svg>
